<?xml version="1.0" encoding="utf-8"?>
<!-- Generator: Adobe Illustrator 24.0.0, SVG Export Plug-In . SVG Version: 6.00 Build 0)  -->
<svg version="1.1" id="Layer_1" xmlns="http://www.w3.org/2000/svg" xmlns:xlink="http://www.w3.org/1999/xlink" x="0px" y="0px"
	 viewBox="0 0 299.88 302.95" style="enable-background:new 0 0 299.88 302.95;" xml:space="preserve">
<style type="text/css">
	.st0{fill:#316498;}
	.st1{fill:none;stroke:#316498;stroke-width:3;stroke-miterlimit:10;}
	.st2{fill:none;stroke:#316498;stroke-width:3;stroke-miterlimit:10;stroke-dasharray:5.0533,5.0533;}
	.st3{fill:none;stroke:#316498;stroke-width:3;stroke-miterlimit:10;stroke-dasharray:4.9379,4.9379;}
	.st4{fill:none;stroke:#316498;stroke-width:3;stroke-miterlimit:10;stroke-dasharray:5.0636,5.0636;}
</style>
<path class="st0" d="M497.47-201.87C447.92-100.88,398.36,0.1,348.81,101.08c99.96-0.17,199.92-0.34,299.88-0.51
	C598.29-0.24,547.88-101.05,497.47-201.87z"/>
<g>
	<g>
		<path class="st1" d="M149.73,4.9c-0.37-0.75-0.75-1.49-1.12-2.24c-0.37,0.75-0.73,1.5-1.1,2.24"/>
		<path class="st2" d="M145.29,9.45C98.17,105.47,51.04,201.49,3.92,297.52"/>
		<path class="st1" d="M2.81,299.78c-0.37,0.75-0.73,1.5-1.1,2.24c0.83,0,1.67,0,2.5,0"/>
		<path class="st3" d="M9.15,302.02c94.64-0.16,189.29-0.32,283.93-0.48"/>
		<path class="st1" d="M295.54,301.53c0.83,0,1.67,0,2.5,0c-0.37-0.75-0.75-1.49-1.12-2.24"/>
		<path class="st4" d="M294.66,294.76c-47.93-95.86-95.86-191.73-143.8-287.59"/>
	</g>
</g>
</svg>
